# xmcd CD database file
#
# Track frame offsets:
#	182
#	13927
#	25927
#	36707
#	48210
#	60340
#	72230
#	85242
#	100062
#	111967
#	125505
#
# Disc length: 1834 seconds
#
# Revision: 2
# Processed by: cddbd v1.5PL3 Copyright (c) Steve Scherf et al.
# Submitted via: CDex 1.51
#
DISCID=9207280b
DTITLE=Memphis Slim - Memphis Slim
DYEAR=1961
DGENRE=Blues
TTITLE0=I Guess I'm A Fool
TTITLE1=Rockin' The Pad
TTITLE2=Havin' Fun
TTITLE3=Marack
TTITLE4=Mother Earth
TTITLE5=Really Got The Blues
TTITLE6=Tia Juana
TTITLE7=I'm Crying
TTITLE8=Reverend Bounce
TTITLE9=Slim's Blues
TTITLE10=Blues For My Baby
EXTD=CD Chess 1024\n\nSubmitted 6/3/97\n[Jmccoy@efn.org] YEAR: 1961
EXTT0=
EXTT1=
EXTT2=
EXTT3=
EXTT4=
EXTT5=
EXTT6=
EXTT7=
EXTT8=
EXTT9=
EXTT10=
PLAYORDER=
